<svg xmlns="http://www.w3.org/2000/svg" width="512" height="512" viewBox="-143.75 -230.75 1567.5 1567.5" preserveAspectRatio="xMidYMid meet" fill="none">
  <path d="M955.5,1094.96 C919.73,1089.39 894.91,1064.35 885.74,1024.56 C883.19,1013.47 882.68,984.16 884.83,972 C893.22,924.52 918.77,898.13 959,895.36 C980.2,893.91 1000.85,900.78 1015.5,914.18 C1022.13,920.23 1030.66,932.83 1034.83,942.7 C1040.89,957.06 1044.97,978.78 1044.99,996.75 L1045,1005 L988.87,1005 L932.74,1005 L933.43,1012.25 C935.4,1032.95 942.46,1047.03 953.63,1052.58 C959.35,1055.42 973.98,1055.28 979.5,1052.33 C984.86,1049.47 990.59,1043.61 994.14,1037.37 L997.05,1032.25 L1018.78,1037.65 C1030.72,1040.63 1041.05,1043.25 1041.72,1043.49 C1043.26,1044.02 1042.08,1046.94 1036.5,1056.46 C1026.2,1074.04 1007.69,1088.07 988.14,1093.11 C979.18,1095.42 964,1096.28 955.5,1094.96 Z M155.86,1092.56 C147.32,1090.77 136.93,1086.39 129.45,1081.42 C122.35,1076.71 111.32,1066.57 110.5,1064.01 C110.11,1062.76 112.97,1057.47 119.52,1047.34 C124.8,1039.18 129.52,1032.1 130.01,1031.6 C130.53,1031.07 132.87,1032.65 135.7,1035.46 C149.51,1049.14 166.06,1054.58 176.96,1049.02 C183.89,1045.48 187.84,1036.67 186.05,1028.72 C184.1,1020.06 178.97,1016.08 162.51,1010.45 C131.1,999.69 117.29,980.87 119.37,951.61 C121.39,923.13 139.61,901.8 165.31,897.83 C183.56,895.01 210.76,902.26 223.52,913.34 L227.15,916.5 L223.26,922 C221.12,925.02 216.34,931.88 212.64,937.24 L205.91,946.99 L201.79,943.02 C196.23,937.69 189.75,934.74 182.5,934.24 C177.44,933.89 175.97,934.19 173.09,936.16 C167.6,939.93 165.62,943.34 165.62,949 C165.62,957.96 170.18,961.78 191.59,970.73 C207.5,977.38 215.06,982.05 221.49,989.2 C238.72,1008.37 239.23,1044.11 222.6,1067.41 C214.65,1078.55 201.21,1087.73 187.43,1091.44 C178.96,1093.71 163.91,1094.25 155.86,1092.56 Z M332.5,1092.59 C319.65,1090.07 311.49,1086.61 301.5,1079.46 C288.66,1070.28 277.29,1055.93 270.85,1040.82 C260.25,1015.9 259.14,983.72 267.97,957.58 C280.16,921.52 308.71,896.78 343.75,891.9 C355.5,890.27 369.16,893.2 382.75,900.28 L387,902.5 L387,922.75 C387,933.89 386.86,943 386.69,943 C386.52,943 382.58,941.58 377.94,939.84 C370.55,937.08 367.94,936.63 357,936.25 C339.48,935.63 335.72,937.1 323.42,949.41 C312.98,959.86 308.01,968.58 305.4,981 C302.67,993.97 305.37,1009.33 312.55,1021.73 C316.02,1027.72 327.91,1039.4 333.37,1042.19 C349.8,1050.59 372.94,1051.37 385.75,1043.95 L389,1042.07 L389,1062.39 L389,1082.7 L382.25,1085.8 C366.98,1092.79 347.26,1095.48 332.5,1092.59 Z M485.5,1092.36 C481.65,1091.55 474.68,1089.04 470.01,1086.79 C462.88,1083.36 459.98,1081.16 452.01,1073.1 C431.36,1052.25 420.75,1022.03 422.29,988.5 C423.72,957.45 434.5,932.03 454.02,913.67 C470.01,898.62 490.14,892.42 509.96,896.43 C520.42,898.55 530.74,903.7 537.66,910.24 L543,915.29 L543,908.15 L543,901 L567.5,901 L592,901 L592,994.5 L592,1088 L568.5,1088 L545,1088 L545,1079.88 L545,1071.76 L538.23,1078.13 C523.95,1091.57 505.42,1096.57 485.5,1092.36 Z M1084,971.5 L1084,853 L1108,853 L1132,853 L1132,878 L1132,903 L1151,903 L1170,903 L1170,925 L1170,947 L1151,947 L1132,947 L1132,1018.5 L1132,1090 L1108,1090 L1084,1090 L1084,971.5 Z M646,994.5 L646,901 L669.96,901 L693.92,901 L694.21,909.98 L694.5,918.95 L699.17,913.11 C704.72,906.17 714.1,899.63 721.88,897.29 C729.3,895.05 742.74,895.06 750.22,897.31 C755.6,898.94 755.91,899.2 755.46,901.77 C755.03,904.17 750,947.2 750,948.47 C750,948.74 748.08,947.61 745.74,945.96 C738.66,940.96 725.55,940.23 715.84,944.29 C707.03,947.98 700.07,958.09 696.44,972.5 C694.89,978.64 694.63,986.14 694.27,1033.75 L693.86,1088 L669.93,1088 L646,1088 L646,994.5 Z M794,970.5 L794,853 L818,853 L842,853 L842,970.5 L842,1088 L818,1088 L794,1088 L794,970.5 Z M520.34,1045.38 C541.35,1037.97 553.99,1006.82 547.02,979.6 C538.03,944.41 505.25,932.06 483.08,955.5 C473.73,965.4 468.72,979.06 468.61,995 C468.53,1006.19 469.98,1012.89 474.61,1022.67 C480.54,1035.22 491.38,1044.76 502.22,1046.97 C507.22,1047.99 514.85,1047.32 520.34,1045.38 Z M1000,968.18 C1000,965.39 995.34,952.3 992.88,948.17 C980.37,927.19 956.14,926.52 943.12,946.81 C939.87,951.87 936.79,959.84 935.6,966.25 L934.91,970 L967.45,970 C998.29,970 1000,969.9 1000,968.18 Z M623.5,791.9 C605.67,790.04 584.76,784.23 572.83,777.82 C548.33,764.64 50.99,477.64 45.26,473.36 C22.78,456.61 10.11,426.08 13.98,398 C18.76,363.3 43.03,335.72 76.5,326.93 C82.49,325.36 87.51,324.83 96.5,324.83 C110.74,324.83 120.29,326.98 132.5,332.91 C136.9,335.05 201.25,371.91 275.5,414.82 C349.74,457.73 410.66,492.67 410.87,492.47 C411.07,492.26 375.56,429.86 331.95,353.79 C288.34,277.73 251.45,212.8 249.98,209.5 C244.57,197.35 243.5,191.69 243.54,175.5 C243.57,161.13 243.71,160.09 246.93,150.69 C256.61,122.44 277.27,103.51 307.5,95.18 C317.01,92.57 338.29,92.89 348.42,95.8 C357.13,98.31 368.31,103.59 374.5,108.12 C380.88,112.79 390.85,123.03 394.83,129.01 C396.85,132.04 433.6,196.49 476.5,272.24 L554.5,409.97 L555.02,244.24 C555.6,57.6 554.82,74.85 563.44,56.5 C572.96,36.23 589.67,21.54 612,13.82 C621.24,10.62 621.94,10.53 638,10.53 C654.06,10.53 654.76,10.62 664,13.82 C686.22,21.5 702.14,35.34 711.96,55.5 C721.25,74.6 720.4,56.8 720.98,243.28 L721.5,408.07 L796.47,277.28 C885.1,122.67 882.6,126.93 888.38,120.21 C899.07,107.77 913.81,98.33 929.57,93.83 C940.8,90.61 961.08,90.58 972.16,93.75 C987.88,98.25 1000.1,105.35 1010.73,116.16 C1018.59,124.17 1021.9,128.7 1026.36,137.58 C1032.55,149.92 1034.48,158.56 1034.47,174 C1034.47,187.87 1033.56,193.12 1029.1,205 C1027.97,208.03 990.88,273.5 946.7,350.5 C902.51,427.5 866.48,490.66 866.63,490.86 C866.98,491.34 856.16,497.51 1097.44,359.05 C1121.61,345.18 1143.9,332.57 1146.97,331.01 C1163.99,322.42 1187.41,320.28 1205.98,325.62 C1234.03,333.67 1256.19,356.88 1264.11,386.5 C1266.87,396.84 1267.16,416.21 1264.69,426.24 C1260.12,444.84 1253.18,457.04 1239.57,470.42 L1230.5,479.35 L969,629.67 C778.42,739.21 705.19,780.82 699,783.08 C676.51,791.29 648.74,794.53 623.5,791.9 Z" fill="#EF3F35" fill-rule="evenodd"/>
</svg>
