<svg width="512" height="512" id="logosandtypes_com" data-name="logosandtypes com" xmlns="http://www.w3.org/2000/svg" viewBox="-4.6262 -4.8844 161.2125 161.2125" preserveAspectRatio="xMidYMid meet"><defs><style>.cls-1{fill:none;}.cls-2{fill:#5c2d91;}</style></defs><g id="Layer_2" data-name="Layer 2"><path id="Layer_3" data-name="Layer 3" class="cls-1" d="M0,0H150V150H0Z" transform="translate(0 0)"/></g><path class="cls-2" d="M52.26,85a122.46,122.46,0,0,0,0-18.47,7.5,7.5,0,0,0-2.17-.64c-11.08-2.61-22.2-7-30.36-15.19C11.67,42.79,8.27,30.43,15.7,20.94,27,5.78,44.48,9.79,54.78,23.74c6.17,8.16,9.71,18,11.84,27.87a1.36,1.36,0,0,0,1,.42c5.76.29,11.84.63,17.52-.17a2,2,0,0,0,.49-1.15C88.14,39.78,92.29,28.8,100,20.48c11.85-13,29-12.45,38.12,3.22,4.34,7.7,2.27,17.16-3.05,23.77-8.45,10.87-22,15.91-35,18.88-.83,1.76-.92,16-.13,18.61,10.31,2.62,20.61,5.88,29,12.76,10.73,8.3,16.17,22.85,6.35,34.08-11.86,14-28.8,8.9-38.46-4.65A62.52,62.52,0,0,1,88,109.4a87,87,0,0,1-2.39-8.82,2.42,2.42,0,0,0-.47-1.08,108.51,108.51,0,0,0-18.47,0c-3.1,13.94-8.71,28.61-21.06,36.79-6.19,4.16-14.48,5.35-21.19,1.7-10.19-5.17-16.24-17.43-11-28.2C20.4,94.88,37.23,88.52,52.26,85Zm51.15,17.94a.89.89,0,0,0,0,.8,47.32,47.32,0,0,0,6.48,13.49c2.5,3.29,7.73,9.22,11.8,5.12,2.63-2.42,3.17-4.19,1.23-7.23a18.13,18.13,0,0,0-3.82-4.29A44.32,44.32,0,0,0,103.41,102.94Zm-54.56,0a41.83,41.83,0,0,0-16.65,8.55,15.13,15.13,0,0,0-3.8,5c-1.18,2.22.29,4.41,2,5.87,3.46,3.63,8-.64,10.44-3.41A43.25,43.25,0,0,0,48.85,102.93Zm54.5-54.53c.15.12.29,0,.42,0a50.72,50.72,0,0,0,11.61-5.1,22.4,22.4,0,0,0,7.29-6.57c2.26-3.42,1.75-4.92-.67-7.37-4.56-5.09-10.89,2.86-13.32,6.66a49.82,49.82,0,0,0-5.14,11.35A2,2,0,0,0,103.35,48.4Zm-54.53.11C46.65,41,42.55,31.66,35.24,28.09c-2.59-1.33-4.92.68-6.4,2.69-2.43,3.19,1,6.83,3.22,9C36.85,44.12,42.63,46.74,48.82,48.51ZM83.23,82.87a133.75,133.75,0,0,1,0-14.3c-4.85.17-9.57.17-14.31,0,.1,4.82.08,9.56,0,14.3C73.69,82.71,78.39,82.71,83.23,82.87Z" transform="translate(0 0)"/></svg>