<svg xmlns="http://www.w3.org/2000/svg" viewBox="0 0 1280 452" fill="none">
  <path d="M890,450.97 C825.4,445.94 775.28,425.01 734.82,386.18 C703.04,355.68 682.3,316.01 674.59,271 C670.48,246.99 669.99,209.91 673.48,187 C682.44,128.22 710.62,80.45 756.09,46.99 C806.3,10.03 877.84,-6.47 948.93,2.5 C989.85,7.67 1025.51,21.39 1055.5,43.5 L1064.99,50.5 L1031.66,83.84 L998.32,117.18 L991.55,112.64 C976.64,102.64 958.34,95.49 938.36,91.84 C922.69,88.98 889.35,88.66 875.5,91.24 C845.57,96.81 824.05,107.78 804.48,127.44 C786.09,145.9 775.41,165.92 769.5,193 C767.27,203.22 766.37,233.96 767.94,246.44 C772.62,283.64 792.05,317 819.66,335.25 C837.67,347.15 860.54,355.64 888,360.63 C901.29,363.04 929.67,363.03 944.47,360.6 C963.22,357.53 977.77,352.65 991.75,344.74 L999,340.64 L999,283.32 L999,226 L1047,226 L1095,226 L1095,305.41 L1095,384.81 L1087.75,391.54 C1052.71,424.05 1006.7,443.5 949.5,449.98 C936.47,451.46 903.36,452.01 890,450.97 Z M0,225.98 L0,6.76 L88.25,7.29 C190.01,7.89 211.18,8.97 241.5,15.09 C279.2,22.71 322.85,47.73 351.46,78.16 C383.4,112.1 402.16,150.71 408.61,195.71 C410.9,211.72 410.9,240.56 408.6,256.45 C401.55,305.28 380.45,346.23 344.52,380.84 C326.47,398.22 308.9,410.31 284.13,422.36 C258.87,434.66 238.3,439.49 196,443.08 C187.77,443.78 146.88,444.42 91.25,444.71 L0,445.2 L0,225.98 Z M493,226 L493,7 L541,7 L589,7 L589,226 L589,445 L541,445 L493,445 L493,226 Z M1184,226 L1184,7 L1232,7 L1280,7 L1280,226 L1280,445 L1232,445 L1184,445 L1184,226 Z M166.74,362.01 C203.48,360.42 217.42,357.57 237.81,347.46 C268.64,332.17 291.22,308.84 304.16,278.91 C319.33,243.8 318.22,200.34 301.28,166.58 C281.75,127.67 242.44,98.67 200.98,92.58 C185.58,90.32 158.45,89.04 125.25,89.02 L96,89 L96,226 L96,363 L120.25,362.98 C133.59,362.97 154.51,362.53 166.74,362.01 Z" fill="#002BFF" fill-rule="evenodd"/>
</svg>
